<?xml version="1.0" encoding="utf-8"?>
<!-- Generator: Adobe Illustrator 17.0.0, SVG Export Plug-In . SVG Version: 6.00 Build 0)  -->
<!DOCTYPE svg PUBLIC "-//W3C//DTD SVG 1.1//EN" "http://www.w3.org/Graphics/SVG/1.1/DTD/svg11.dtd">
<svg version="1.1" id="Calque_1" xmlns="http://www.w3.org/2000/svg" xmlns:xlink="http://www.w3.org/1999/xlink" x="0px" y="0px"
	 width="189.36px" height="68.262px" viewBox="0 0 189.36 68.262" enable-background="new 0 0 189.36 68.262" xml:space="preserve">
<g>
	<path fill="#AEEE00" d="M12.745,68.262c-5.184,0-7.776-1.368-11.449-4.608l2.448-2.448c2.736,2.448,4.608,3.816,9,3.816
		c7.273,0,10.513-5.185,10.513-12.025v-6.192c-3.024,4.032-6.409,4.896-10.297,4.896c-3.601,0-6.697-1.224-8.497-3.024
		C0.936,45.148,0,39.388,0,33.915s0.936-11.233,4.464-14.761c1.8-1.8,4.896-3.024,8.497-3.024c3.888,0,7.272,0.864,10.297,4.896
		v-4.464h3.672v36.651C26.931,61.925,21.746,68.262,12.745,68.262z M13.465,19.37c-8.497,0-9.793,7.345-9.793,14.545
		S4.969,48.46,13.465,48.46s9.793-7.345,9.793-14.545S21.962,19.37,13.465,19.37z"/>
	<path fill="#AEEE00" d="M40.464,4.537V0H45v4.537H40.464z M40.896,51.269V16.562h3.672v34.707H40.896z"/>
	<path fill="#AEEE00" d="M67.752,51.269c-5.472,0-8.353-3.816-8.353-9.073V19.298h-4.752v-2.736h4.752V5.473h3.672v11.089h7.849
		v2.736h-7.849v22.97c0,3.601,1.656,5.761,5.329,5.761h2.52v3.24H67.752z"/>
	<path fill="#AEEE00" d="M104.977,51.269v-21.53c0-6.697-3.384-10.369-9.577-10.369s-9.793,3.816-9.793,10.369v21.53h-3.672V0h3.672
		v20.666c2.592-3.024,6.049-4.537,10.225-4.537c7.92,0,12.817,4.969,12.817,12.961v22.178H104.977z"/>
	<path fill="#AEEE00" d="M144.793,51.269v-4.104c-2.593,3.024-6.049,4.537-10.226,4.537c-3.888,0-6.984-1.152-9.217-3.312
		c-2.304-2.232-3.6-5.544-3.6-9.649V16.562h3.672v21.53c0,6.697,3.385,10.369,9.577,10.369s9.793-3.816,9.793-10.369v-21.53h3.672
		v34.707H144.793z"/>
	<path fill="#AEEE00" d="M184.896,48.676c-1.8,1.8-4.896,3.024-8.497,3.024c-3.888,0-7.272-0.864-10.297-4.896v4.464h-3.672V0h3.672
		v21.026c3.024-4.032,6.409-4.896,10.297-4.896c3.601,0,6.697,1.224,8.497,3.024c3.528,3.528,4.465,9.289,4.465,14.761
		S188.424,45.148,184.896,48.676z M175.895,19.37c-8.496,0-9.793,7.345-9.793,14.545s1.297,14.545,9.793,14.545
		c8.497,0,9.793-7.345,9.793-14.545S184.392,19.37,175.895,19.37z"/>
</g>
</svg>
