<?xml version="1.0" encoding="UTF-8" standalone="no"?>
<!-- Created with Inkscape (http://www.inkscape.org/) -->

<svg
   width="74.438232mm"
   height="18.477201mm"
   viewBox="0 0 74.438233 18.477201"
   version="1.1"
   id="svg4399"
   xmlns="http://www.w3.org/2000/svg"
   xmlns:svg="http://www.w3.org/2000/svg">
  <defs
     id="defs4396" />
  <g
     id="layer1"
     transform="translate(-62.467737,-78.521144)">
    <g
       aria-label="polywork "
       id="text1813"
       style="font-weight:300;font-size:25.4px;font-family:'DIN Light';-inkscape-font-specification:DIN-Light;fill:#aeee00;stroke-width:0.352778"
       transform="matrix(0.77223873,0,0,0.77223873,16.752766,19.687672)">
      <path
         d="m 68.697576,88.149001 c 0,-1.9304 -0.3302,-3.9624 -1.5748,-5.207 -0.635,-0.635 -1.727199,-1.0668 -2.997199,-1.0668 -1.3716,0 -2.5654,0.3048 -3.6322,1.7272 v -1.5748 h -1.2954 V 100.1124 h 1.2954 v -7.416799 c 1.0668,1.4224 2.2606,1.7272 3.6322,1.7272 1.27,0 2.362199,-0.4318 2.997199,-1.0668 1.2446,-1.2446 1.5748,-3.2766 1.5748,-5.207 z m -1.2954,0 c 0,2.54 -0.4572,5.1308 -3.454399,5.1308 -2.9972,0 -3.4544,-2.5908 -3.4544,-5.1308 0,-2.54 0.4572,-5.1308 3.4544,-5.1308 2.997199,0 3.454399,2.5908 3.454399,5.1308 z"
         style="fill:#ff9800"
         id="path6630" />
      <path
         d="m 82.057951,88.149001 c 0,-1.7526 -0.2286,-3.6322 -1.524,-4.9276 -0.8636,-0.8636 -2.032,-1.3462 -3.4036,-1.3462 -1.3716,0 -2.54,0.4826 -3.4036,1.3462 -1.2954,1.2954 -1.524,3.175 -1.524,4.9276 0,1.7526 0.2286,3.6322 1.524,4.9276 0.8636,0.8636 2.032,1.3462 3.4036,1.3462 1.3716,0 2.54,-0.4826 3.4036,-1.3462 1.2954,-1.2954 1.524,-3.175 1.524,-4.9276 z m -1.2954,0 c 0,1.4224 -0.0762,3.0734 -1.0922,4.0894 -0.6604,0.6604 -1.5494,1.0414 -2.54,1.0414 -0.9906,0 -1.8796,-0.381 -2.54,-1.0414 -1.016,-1.016 -1.0922,-2.667 -1.0922,-4.0894 0,-1.4224 0.0762,-3.0734 1.0922,-4.0894 0.6604,-0.6604 1.5494,-1.0414 2.54,-1.0414 0.9906,0 1.8796,0.381 2.54,1.0414 1.016,1.016 1.0922,2.667 1.0922,4.0894 z"
         style="fill:#ff9800"
         id="path6632" />
      <path
         d="m 90.287528,94.270401 v -1.143 h -0.889 c -1.4478,0 -1.8796,-0.6858 -1.8796,-2.0574 v -14.8844 h -1.2954 v 14.9098 c 0,1.905 0.9652,3.175 2.9464,3.175 z"
         style="fill:#ff9800"
         id="path6634" />
      <path
         d="m 101.15868,82.027601 h -1.422395 l -3.683,10.7188 -3.683,-10.7188 h -1.4224 l 4.4704,12.2428 -0.9906,2.7178 c -0.4572,1.2192 -0.8382,1.6764 -2.2352,1.6764 h -0.4826 v 1.143 h 0.6096 c 0.8128,0 1.7018,-0.2032 2.3114,-0.7874 0.3556,-0.3048 0.6096,-0.762 0.8382,-1.4224 z"
         style="fill:#ff9800"
         id="path6636" />
      <path
         d="m 119.24344,82.027601 h -1.4224 l -3.1242,10.7188 -3.5052,-10.7188 h -1.27 l -3.5052,10.7188 -3.1242,-10.7188 h -1.4224 l 3.9116,12.2428 h 1.3208 l 3.4544,-10.2108 3.4544,10.2108 h 1.3208 z"
         style="fill:#ff9800"
         id="path6638" />
      <path
         d="m 131.07981,88.149001 c 0,-1.7526 -0.2286,-3.6322 -1.524,-4.9276 -0.8636,-0.8636 -2.032,-1.3462 -3.4036,-1.3462 -1.3716,0 -2.54,0.4826 -3.4036,1.3462 -1.2954,1.2954 -1.524,3.175 -1.524,4.9276 0,1.7526 0.2286,3.6322 1.524,4.9276 0.8636,0.8636 2.032,1.3462 3.4036,1.3462 1.3716,0 2.54,-0.4826 3.4036,-1.3462 1.2954,-1.2954 1.524,-3.175 1.524,-4.9276 z m -1.2954,0 c 0,1.4224 -0.0762,3.0734 -1.0922,4.0894 -0.6604,0.6604 -1.5494,1.0414 -2.54,1.0414 -0.9906,0 -1.8796,-0.381 -2.54,-1.0414 -1.016,-1.016 -1.0922,-2.667 -1.0922,-4.0894 0,-1.4224 0.0762,-3.0734 1.0922,-4.0894 0.6604,-0.6604 1.5494,-1.0414 2.54,-1.0414 0.9906,0 1.8796,0.381 2.54,1.0414 1.016,1.016 1.0922,2.667 1.0922,4.0894 z"
         style="fill:#ff9800"
         id="path6640" />
      <path
         d="m 143.11939,83.043601 c -0.8636,-0.8636 -1.778,-1.1684 -2.9464,-1.1684 -1.4478,0 -2.8702,0.635 -3.5814,1.778 v -1.6256 h -1.2954 v 12.2428 h 1.2954 v -7.5438 c 0,-1.9812 1.1684,-3.7084 3.2766,-3.7084 1.016,0 1.5748,0.2286 2.3114,0.9652 z"
         style="fill:#ff9800"
         id="path6642" />
      <path
         d="m 155.59075,94.270401 -4.9276,-7.6708 4.0386,-4.572 h -1.651 l -6.0706,6.9088 v -12.7508 h -1.2954 v 18.0848 h 1.2954 v -3.5052 l 2.794,-3.2258 4.2164,6.731 z"
         style="fill:#ff9800"
         id="path6644" />
    </g>
  </g>
</svg>
