<?xml version="1.0" encoding="utf-8"?>
<!-- Generator: Adobe Illustrator 17.0.0, SVG Export Plug-In . SVG Version: 6.00 Build 0)  -->
<!DOCTYPE svg PUBLIC "-//W3C//DTD SVG 1.1//EN" "http://www.w3.org/Graphics/SVG/1.1/DTD/svg11.dtd">
<svg version="1.1" id="Calque_1" xmlns="http://www.w3.org/2000/svg" xmlns:xlink="http://www.w3.org/1999/xlink" x="0px" y="0px"
	 width="169.631px" height="51.701px" viewBox="0 0 169.631 51.701" enable-background="new 0 0 169.631 51.701"
	 xml:space="preserve">
<g>
	<path fill="#FF358B" d="M3.672,34.707c0,8.785,3.96,13.681,11.305,13.681c4.104,0,6.625-1.224,9.577-4.176l2.736,2.16
		c-3.528,3.528-6.769,5.329-12.529,5.329C5.185,51.701,0,45.508,0,33.915c0-11.161,5.185-17.786,13.897-17.786
		c8.641,0,13.897,6.336,13.897,16.921v1.656H3.672z M22.898,25.202c-1.512-3.6-5.04-5.833-9-5.833s-7.489,2.232-9.001,5.833
		c-0.864,2.16-1.08,3.24-1.224,6.553h20.45C23.978,28.442,23.762,27.362,22.898,25.202z"/>
	<path fill="#FF358B" d="M85.756,51.269v-21.53c0-6.697-3.384-10.369-9.577-10.369c-5.977,0-9.793,3.816-9.793,9.721v22.178h-3.672
		v-21.53c0-6.697-3.384-10.369-9.577-10.369s-9.793,3.816-9.793,10.369v21.53h-3.672V16.562h3.672v4.104
		c2.521-2.952,6.121-4.537,10.297-4.537c5.113,0,9.073,2.232,11.161,6.336c2.592-4.104,6.697-6.336,11.809-6.336
		c3.816,0,6.984,1.224,9.145,3.312c2.304,2.232,3.601,5.544,3.601,9.649v22.178H85.756z"/>
	<path fill="#FF358B" d="M123.265,51.269v-3.456c-2.952,2.952-5.688,3.888-10.585,3.888c-5.112,0-7.992-0.864-10.225-3.168
		c-1.584-1.656-2.521-4.176-2.521-6.769c0-6.336,4.537-10.009,12.098-10.009h11.232v-3.888c0-5.544-2.736-8.497-9.793-8.497
		c-4.896,0-7.416,1.224-9.576,4.393l-2.664-2.304c2.952-4.104,6.624-5.329,12.24-5.329c9.146,0,13.466,4.104,13.466,11.377v23.762
		H123.265z M123.265,34.707h-10.801c-5.977,0-8.856,2.376-8.856,6.985s2.808,6.769,9.072,6.769c3.169,0,6.193-0.288,8.641-2.665
		c1.297-1.224,1.944-3.384,1.944-6.625V34.707z"/>
	<path fill="#FF358B" d="M140.183,4.537V0h4.536v4.537H140.183z M140.614,51.269V16.562h3.672v34.707H140.614z"/>
	<path fill="#FF358B" d="M166.463,51.269c-5.617,0-8.353-3.6-8.353-9.001V0h3.672v42.196c0,3.888,1.224,5.833,5.328,5.833h2.521
		v3.24H166.463z"/>
</g>
</svg>
