<?xml version="1.0" encoding="utf-8"?>
<!-- Generator: Adobe Illustrator 17.0.0, SVG Export Plug-In . SVG Version: 6.00 Build 0)  -->
<!DOCTYPE svg PUBLIC "-//W3C//DTD SVG 1.1//EN" "http://www.w3.org/Graphics/SVG/1.1/DTD/svg11.dtd">
<svg version="1.1" id="Calque_1" xmlns="http://www.w3.org/2000/svg" xmlns:xlink="http://www.w3.org/1999/xlink" x="0px" y="0px"
	 width="98.24px" height="14.363px" viewBox="0 0 98.24 14.363" enable-background="new 0 0 98.24 14.363" xml:space="preserve">
<g>
	<path fill="#DDDDDD" d="M10.882,14.243V2.5l-4.321,9.742h-1.08L1.08,2.5v11.743H0V0h1.08l4.961,10.982L10.882,0h1.08v14.243H10.882
		z"/>
	<path fill="#DDDDDD" d="M21.761,14.243v-0.96c-0.82,0.819-1.58,1.08-2.94,1.08c-1.42,0-2.221-0.24-2.841-0.881
		c-0.44-0.46-0.7-1.16-0.7-1.88c0-1.761,1.26-2.781,3.361-2.781h3.121v-1.08c0-1.54-0.76-2.36-2.721-2.36
		c-1.36,0-2.06,0.34-2.66,1.22l-0.74-0.64c0.82-1.14,1.84-1.48,3.4-1.48c2.541,0,3.741,1.14,3.741,3.161v6.602H21.761z
		 M21.761,9.642h-3c-1.661,0-2.46,0.66-2.46,1.94s0.78,1.881,2.521,1.881c0.88,0,1.72-0.08,2.4-0.74c0.36-0.34,0.54-0.94,0.54-1.841
		V9.642z"/>
	<path fill="#DDDDDD" d="M32.98,14.243V8.262c0-1.86-0.94-2.88-2.661-2.88s-2.721,1.06-2.721,2.88v5.981h-1.02V4.601h1.02v1.14
		c0.72-0.84,1.681-1.26,2.841-1.26c1.08,0,1.94,0.32,2.561,0.92c0.64,0.62,1,1.54,1,2.681v6.161H32.98z"/>
	<path fill="#DDDDDD" d="M44.041,14.243v-1.141c-0.72,0.84-1.68,1.261-2.84,1.261c-1.081,0-1.94-0.32-2.561-0.921
		c-0.64-0.62-1-1.54-1-2.681V4.601h1.021v5.981c0,1.86,0.94,2.881,2.66,2.881c1.721,0,2.721-1.061,2.721-2.881V4.601h1.021v9.642
		H44.041z"/>
	<path fill="#DDDDDD" d="M49.399,9.642c0,2.44,1.101,3.801,3.141,3.801c1.141,0,1.84-0.34,2.661-1.16l0.761,0.601
		c-0.98,0.98-1.881,1.48-3.481,1.48c-2.66,0-4.101-1.721-4.101-4.941c0-3.101,1.44-4.941,3.861-4.941
		c2.401,0,3.861,1.76,3.861,4.701v0.46H49.399z M54.74,7.001c-0.42-1-1.4-1.62-2.5-1.62s-2.081,0.62-2.5,1.62
		c-0.24,0.6-0.3,0.9-0.34,1.82h5.681C55.04,7.902,54.98,7.602,54.74,7.001z"/>
	<path fill="#DDDDDD" d="M61.68,14.243c-1.561,0-2.32-1-2.32-2.501V0h1.02v11.723c0,1.08,0.34,1.62,1.48,1.62h0.7v0.9H61.68z"/>
	<path fill="#DDDDDD" d="M74.1,14.243h-0.921L68.498,0h1.141l4,12.343L77.64,0h1.141L74.1,14.243z"/>
	<path fill="#DDDDDD" d="M80.799,1.26V0h1.26v1.26H80.799z M80.918,14.243V4.601h1.021v9.642H80.918z"/>
	<path fill="#DDDDDD" d="M88.099,14.243c-1.56,0-2.32-1-2.32-2.501V0h1.021v11.723c0,1.08,0.34,1.62,1.48,1.62h0.699v0.9H88.099z"/>
	<path fill="#DDDDDD" d="M97.219,14.243v-0.96c-0.82,0.819-1.58,1.08-2.939,1.08c-1.421,0-2.221-0.24-2.842-0.881
		c-0.439-0.46-0.699-1.16-0.699-1.88c0-1.761,1.26-2.781,3.36-2.781h3.12v-1.08c0-1.54-0.76-2.36-2.721-2.36
		c-1.359,0-2.06,0.34-2.66,1.22l-0.74-0.64c0.82-1.14,1.841-1.48,3.4-1.48c2.541,0,3.742,1.14,3.742,3.161v6.602H97.219z
		 M97.219,9.642h-3c-1.66,0-2.461,0.66-2.461,1.94s0.78,1.881,2.521,1.881c0.879,0,1.72-0.08,2.4-0.74
		c0.359-0.34,0.539-0.94,0.539-1.841V9.642z"/>
</g>
</svg>
