<?xml version="1.0" encoding="utf-8"?>
<!-- Generator: Adobe Illustrator 17.0.0, SVG Export Plug-In . SVG Version: 6.00 Build 0)  -->
<!DOCTYPE svg PUBLIC "-//W3C//DTD SVG 1.1//EN" "http://www.w3.org/Graphics/SVG/1.1/DTD/svg11.dtd">
<svg version="1.1" id="Calque_1" xmlns="http://www.w3.org/2000/svg" xmlns:xlink="http://www.w3.org/1999/xlink" x="0px" y="0px"
	 width="202.104px" height="51.701px" viewBox="0 0 202.104 51.701" enable-background="new 0 0 202.104 51.701"
	 xml:space="preserve">
<g>
	<path fill="#01B0F0" d="M13.105,51.269c-5.472,0-8.353-3.816-8.353-9.073V19.298H0v-2.736h4.752V5.473h3.672v11.089h7.849v2.736
		H8.425v22.97c0,3.601,1.656,5.761,5.329,5.761h2.52v3.24H13.105z"/>
	<path fill="#01B0F0" d="M59.475,51.269h-3.744l-9.793-28.946l-9.793,28.946h-3.744L21.312,16.562h4.032l8.856,30.387l9.937-30.387
		h3.601l9.937,30.387l8.857-30.387h4.032L59.475,51.269z"/>
	<path fill="#01B0F0" d="M78.12,4.537V0h4.536v4.537H78.12z M78.551,51.269V16.562h3.672v34.707H78.551z"/>
	<path fill="#01B0F0" d="M105.408,51.269c-5.472,0-8.353-3.816-8.353-9.073V19.298h-4.752v-2.736h4.752V5.473h3.672v11.089h7.849
		v2.736h-7.849v22.97c0,3.601,1.656,5.761,5.329,5.761h2.52v3.24H105.408z"/>
	<path fill="#01B0F0" d="M128.808,51.269c-5.473,0-8.353-3.816-8.353-9.073V19.298h-4.753v-2.736h4.753V5.473h3.672v11.089h7.849
		v2.736h-7.849v22.97c0,3.601,1.656,5.761,5.329,5.761h2.52v3.24H128.808z"/>
	<path fill="#01B0F0" d="M143.927,34.707c0,8.785,3.961,13.681,11.306,13.681c4.104,0,6.624-1.224,9.576-4.176l2.736,2.16
		c-3.528,3.528-6.769,5.329-12.529,5.329c-9.576,0-14.761-6.193-14.761-17.786c0-11.161,5.185-17.786,13.897-17.786
		c8.641,0,13.896,6.336,13.896,16.921v1.656H143.927z M163.152,25.202c-1.512-3.6-5.04-5.833-9-5.833
		c-3.961,0-7.489,2.232-9.001,5.833c-0.864,2.16-1.08,3.24-1.225,6.553h20.45C164.232,28.442,164.017,27.362,163.152,25.202z"/>
	<path fill="#01B0F0" d="M199.44,22.106c-2.088-2.088-3.672-2.736-6.553-2.736c-5.977,0-9.289,4.896-9.289,10.513v21.386h-3.672
		V16.562h3.672v4.608c2.017-3.24,6.049-5.041,10.153-5.041c3.312,0,5.904,0.864,8.353,3.312L199.44,22.106z"/>
</g>
</svg>
